<svg xmlns="http://www.w3.org/2000/svg" xmlns:xlink="http://www.w3.org/1999/xlink" viewBox="0 0 800 200"><defs><style>.a,.b{fill:#fff}</style><symbol id="a" viewBox="0 0 493.51 753.48"><path d="M291.25,579.25a111.34,111.34,0,0,1-157.46,0L33.65,679.39c98.79,98.79,259,98.79,357.74,0s98.79-259,0-357.74L291.25,421.78A111.34,111.34,0,0,1,291.25,579.25Z" class="a"/><polyline points="145.63 477.64 246.78 376.49 291.66 421.38" class="a"/><polyline points="348.38 275.34 247.23 376.49 202.34 331.61" class="a"/><path d="M102.12,74.09c-98.79,98.79-98.79,259,0,357.74L202.26,331.69A111.34,111.34,0,0,1,359.72,174.23L459.86,74.09C361.07-24.7,200.91-24.7,102.12,74.09Z" class="a"/><path d="M493.51,115.63A254.17,254.17,0,0,0,460,74.2l-99.86,99.86Z" class="a"/><path d="M0,637.84a253.81,253.81,0,0,0,33.54,41.44l99.86-99.86Z" class="a"/></symbol></defs><use width="493.51" height="753.48" transform="translate(24.18 15.92) scale(0.22)" xlink:href="#a"/><path d="M138.6,135.59a41.58,41.58,0,0,1,5.48-16.93,32.46,32.46,0,0,1,11.51-11.78A28.54,28.54,0,0,1,171.18,103a24.25,24.25,0,0,1,14.06,4.34,24,24,0,0,1,8.64,11.54,36.69,36.69,0,0,1,1.91,16.29,42.62,42.62,0,0,1-5.48,17.81,32.49,32.49,0,0,1-11.6,11.87A28.86,28.86,0,0,1,163,168.69a23.49,23.49,0,0,1-22.61-15.79,36.21,36.21,0,0,1-2-16.08Zm13.65,8q.3,6.15,3.25,9.87a10.44,10.44,0,0,0,8.24,3.9,14.63,14.63,0,0,0,12-5.51q4.83-5.69,6.06-15.53l.35-5.74q0-7.5-3-11.78a10.52,10.52,0,0,0-8.68-4.51q-8.9-.24-14.06,8.73a32.47,32.47,0,0,0-3.92,12.54A49,49,0,0,0,152.25,143.62Z" class="b"/><path d="M229.77,157.39a13.57,13.57,0,0,0,13.71-10.79l13.13,0A22.5,22.5,0,0,1,252.07,158a26.38,26.38,0,0,1-10,8,27.76,27.76,0,0,1-12.72,2.69,23.86,23.86,0,0,1-13.89-4.21,23.36,23.36,0,0,1-8.37-11.34A36.19,36.19,0,0,1,205.34,137l.17-2.06a41.64,41.64,0,0,1,5.36-16.67,31.32,31.32,0,0,1,11.28-11.51A28.37,28.37,0,0,1,237.51,103q10.31.24,16.46,6.83t6.15,17.14h-13a14.16,14.16,0,0,0-2.66-8.91,9.8,9.8,0,0,0-7.71-3.69q-8.15-.24-12.83,6.91t-5,20.16Q218.46,157.16,229.77,157.39Z" class="b"/><path d="M278.4,167.52H264.52l11-63.4h13.89Zm-.87-79.63a7.84,7.84,0,0,1,2.1-5.5A7.74,7.74,0,0,1,285.32,80,7.43,7.43,0,0,1,291,82.06a7.21,7.21,0,0,1,2.26,5.37,7.38,7.38,0,0,1-2.2,5.5,8,8,0,0,1-5.59,2.29,7.53,7.53,0,0,1-5.63-2A7,7,0,0,1,277.53,87.89Z" class="b"/><path d="M331.61,167.52a18.68,18.68,0,0,1-.59-5.92q-7.84,7.34-16.93,7.09a19.36,19.36,0,0,1-13.68-5.3,16.31,16.31,0,0,1-5.07-13.15A19.39,19.39,0,0,1,304,134.48q8.21-5.74,22-5.75l9,.12.82-4.34a12.74,12.74,0,0,0,0-4.27q-1.17-6.33-8.37-6.51a12.73,12.73,0,0,0-7.83,2.26,9.78,9.78,0,0,0-4.13,6.36l-13.88.11a17.37,17.37,0,0,1,4.16-10.28,24.58,24.58,0,0,1,10-6.88A33.68,33.68,0,0,1,328.91,103q10.38.24,16.17,6.24t4.81,15.56L345,154.46l-.47,5.27a18.55,18.55,0,0,0,.88,6.74l-.06,1.05Zm-14.3-10.19a15.33,15.33,0,0,0,8.14-2,21.65,21.65,0,0,0,6.39-5.54l2.17-12-6.62-.06q-7.86,0-12.54,3a10.84,10.84,0,0,0-5.33,8.11,7.13,7.13,0,0,0,1.73,6.18A8.42,8.42,0,0,0,317.31,157.33Z" class="b"/><path d="M372.27,167.52H358.38l15.65-90h13.89Z" class="b"/><path d="M441.35,104.07l-1.23,6.73A24.48,24.48,0,0,1,458.87,103a18.16,18.16,0,0,1,9.93,2.76,13,13,0,0,1,5.37,7q8.79-10,20.15-9.73,9.26.24,13.74,6.36t3.37,17.14l-6.85,41.07H490.69l6.91-41.19a21,21,0,0,0,.06-4.74q-.93-6.87-8.67-7-8.61-.22-13.59,9.44l-.18,1.29L468,167.52H454l6.91-41a20.58,20.58,0,0,0,.06-4.69q-.93-7.09-8.67-7.27t-13,7l-8,46H417.39l11-63.4Z" class="b"/><path d="M522.62,135.59a41.73,41.73,0,0,1,5.48-16.93,32.54,32.54,0,0,1,11.51-11.78A28.56,28.56,0,0,1,555.2,103a23.58,23.58,0,0,1,22.71,15.88,36.69,36.69,0,0,1,1.9,16.29,42.33,42.33,0,0,1-5.48,17.81,32.41,32.41,0,0,1-11.6,11.87,28.85,28.85,0,0,1-15.67,3.89,23.49,23.49,0,0,1-22.62-15.79,36.07,36.07,0,0,1-2-16.08Zm13.66,8q.29,6.15,3.25,9.87a10.4,10.4,0,0,0,8.23,3.9,14.61,14.61,0,0,0,12-5.51q4.83-5.69,6.07-15.53l.35-5.74q0-7.5-3-11.78a10.49,10.49,0,0,0-8.67-4.51q-8.91-.24-14.06,8.73a32.48,32.48,0,0,0-3.93,12.54A48.87,48.87,0,0,0,536.28,143.62Z" class="b"/><path d="M617.25,88.71l-2.69,15.41H625.4l-1.82,10.55h-10.9l-6,35.51a12.47,12.47,0,0,0-.05,2.64c.23,2.54,1.79,3.86,4.68,4a26.7,26.7,0,0,0,4.93-.53l-.94,11.14a31.84,31.84,0,0,1-8.73,1.23q-7.27-.12-10.87-5t-2.84-12.8l5.91-36.21H588.66l1.87-10.55h10.08l2.7-15.41Z" class="b"/><path d="M640.22,167.52H626.33l11-63.4h13.89Zm-.88-79.63a7.81,7.81,0,0,1,2.11-5.5A7.72,7.72,0,0,1,647.13,80a7.45,7.45,0,0,1,5.66,2.08A7.23,7.23,0,0,1,655,87.43a7.41,7.41,0,0,1-2.19,5.5,8.06,8.06,0,0,1-5.6,2.29,7.52,7.52,0,0,1-5.62-2A7,7,0,0,1,639.34,87.89Z" class="b"/><path d="M659.09,135.59a41.58,41.58,0,0,1,5.48-16.93,32.38,32.38,0,0,1,11.51-11.78A28.54,28.54,0,0,1,691.67,103a23.55,23.55,0,0,1,22.7,15.88,36.69,36.69,0,0,1,1.91,16.29,42.62,42.62,0,0,1-5.48,17.81,32.49,32.49,0,0,1-11.6,11.87,28.89,28.89,0,0,1-15.68,3.89A23.51,23.51,0,0,1,660.9,152.9a36.21,36.21,0,0,1-2-16.08Zm13.65,8q.3,6.15,3.25,9.87a10.42,10.42,0,0,0,8.23,3.9,14.65,14.65,0,0,0,12-5.51q4.83-5.69,6.06-15.53l.35-5.74q0-7.5-3-11.78a10.49,10.49,0,0,0-8.67-4.51q-8.91-.24-14.06,8.73A32.65,32.65,0,0,0,673,135.59,48.87,48.87,0,0,0,672.74,143.62Z" class="b"/><path d="M746.45,104.07,745,111.51q8.15-8.79,18.81-8.56,8.91.18,13.19,6.36t3.16,17.26l-6.85,41H759.46l6.91-41.13a20.58,20.58,0,0,0,.06-4.69q-.76-7-8.32-7.15-7.9-.1-13.89,7.8l-7.91,45.17H722.43l11-63.4Z" class="b"/></svg>