<svg xmlns="http://www.w3.org/2000/svg" width="933.333" height="933.333" preserveAspectRatio="xMidYMid meet" version="1.0" viewBox="0 0 700 700"><metadata>Created by potrace 1.11, written by Peter Selinger 2001-2013</metadata><g fill="#000" stroke="none"><path d="M3697 6794 c-1 -1 -44 -4 -94 -8 -51 -4 -98 -8 -105 -11 -7 -2 -36 -6 -65 -9 -58 -7 -249 -54 -345 -86 -477 -161 -908 -505 -1175 -939 -176 -288 -272 -577 -319 -958 -5 -47 -6 -371 0 -398 2 -11 7 -47 10 -80 16 -142 58 -316 114 -470 100 -281 263 -548 461 -757 l56 -59 437 438 438 438 -28 30 c-351 374 -337 979 29 1345 133 132 326 239 481 265 15 3 43 8 61 11 111 21 309 6 437 -32 116 -35 282 -132 366 -213 23 -22 34 -27 43 -18 6 6 11 8 11 5 0 -6 124 46 245 102 22 10 67 30 100 43 33 14 89 39 125 55 36 16 202 89 370 162 168 73 306 133 307 134 1 1 -16 29 -39 61 -157 228 -391 452 -633 607 -291 186 -634 304 -975 334 -70 6 -308 13 -313 8z" transform="translate(0.000000,700.000000) scale(0.100000,-0.100000)"/><path d="M4280 4346 c-47 -18 -251 -97 -455 -175 -203 -78 -384 -149 -402 -157 -17 -7 -34 -14 -38 -14 -8 0 -160 -58 -227 -87 -21 -9 -38 -19 -38 -23 0 -3 37 -43 83 -88 45 -44 131 -129 190 -189 l108 -109 -443 -443 c-429 -429 -441 -442 -388 -421 30 12 69 26 85 31 17 5 39 13 50 19 11 5 121 48 245 95 124 48 252 97 285 110 33 13 143 55 245 94 102 40 212 83 245 96 l60 24 43 -47 c126 -138 222 -349 238 -526 10 -109 10 -134 3 -202 -13 -117 -17 -136 -42 -214 -134 -416 -528 -691 -965 -674 -51 2 -101 5 -110 8 -9 3 -30 8 -47 11 -158 27 -293 96 -470 238 l-30 25 -60 -28 c-33 -15 -166 -74 -295 -130 -129 -56 -259 -113 -288 -126 -29 -13 -55 -24 -57 -24 -3 0 -33 -13 -67 -29 -35 -16 -137 -62 -228 -101 -91 -40 -166 -73 -167 -74 -4 -3 55 -86 119 -167 103 -130 164 -193 179 -184 8 6 10 4 4 -4 -18 -29 314 -294 463 -370 274 -139 404 -188 627 -236 174 -37 282 -48 465 -49 110 0 288 11 313 19 7 2 29 6 49 9 135 20 400 97 518 152 285 132 479 264 674 460 119 118 148 150 186 204 13 19 31 41 38 49 40 41 152 227 217 361 62 126 137 337 161 451 19 95 34 183 40 234 3 33 8 74 10 90 5 42 5 299 0 365 -26 353 -163 745 -368 1050 -39 58 -73 107 -77 110 -3 3 -32 37 -63 75 -31 39 -74 87 -95 108 l-39 37 -435 -435 -435 -436 -189 190 c-104 105 -191 194 -193 199 -1 5 194 206 434 446 240 240 433 436 428 435 -5 0 -47 -15 -94 -33z" transform="translate(0.000000,700.000000) scale(0.100000,-0.100000)"/></g></svg>