<svg xmlns="http://www.w3.org/2000/svg" xmlns:xlink="http://www.w3.org/1999/xlink" viewBox="0 0 800 800"><defs><style>.a{fill:#fff;}</style><symbol id="a" viewBox="0 0 493.51 753.48"><path class="a" d="M291.25,579.25a111.34,111.34,0,0,1-157.46,0L33.65,679.39c98.79,98.79,259,98.79,357.74,0s98.79-259,0-357.74L291.25,421.78A111.34,111.34,0,0,1,291.25,579.25Z"/><polyline class="a" points="145.63 477.64 246.78 376.49 291.66 421.38"/><polyline class="a" points="348.38 275.34 247.23 376.49 202.34 331.61"/><path class="a" d="M102.12,74.09c-98.79,98.79-98.79,259,0,357.74L202.26,331.69A111.34,111.34,0,0,1,359.72,174.23L459.86,74.09C361.07-24.7,200.91-24.7,102.12,74.09Z"/><path class="a" d="M493.51,115.63A254.17,254.17,0,0,0,460,74.2l-99.86,99.86Z"/><path class="a" d="M0,637.84a253.81,253.81,0,0,0,33.54,41.44l99.86-99.86Z"/></symbol></defs><use width="493.51" height="753.48" transform="translate(153.25 23.26)" xlink:href="#a"/></svg>